<?xml version="1.0" encoding="utf-8"?>
<!-- Generator: Adobe Illustrator 23.0.1, SVG Export Plug-In . SVG Version: 6.00 Build 0)  -->
<svg version="1.1" id="Layer_1" xmlns="http://www.w3.org/2000/svg" xmlns:xlink="http://www.w3.org/1999/xlink" x="0px" y="0px"
	 viewBox="0 0 772.6 768.7" style="enable-background:new 0 0 772.6 768.7;" xml:space="preserve">
<style type="text/css">
	.st0{fill:#50AFB7;}
	.st1{fill:#FFFFFF;}
	.st2{fill:url(#SVGID_1_);}
</style>
<g>
	<g>
		<path class="st0" d="M68,439H2.1v-38.8h179.3V439h-65.9v167H68V439z"/>
	</g>
	<path class="st1" d="M733.1,497.8c10.1-14.7,18.5-30.7,24.2-47.6c6.5-19.5,8.7-40.2,5-60.5c-2-11.3-5.6-22.3-10-32.8
		c-5-11.9-11.2-23.3-18.1-34.2c-7.8-12.3-16.4-23.9-25.7-35.1c-10.3-12.4-21.3-24.2-32.8-35.4c-12.6-12.3-25.7-24-39.3-35.2
		c-14.7-12-29.8-23.5-45.3-34.4c-16.5-11.6-33.5-22.6-50.8-33c-18.2-11-36.9-21.3-55.8-31c-19.8-10.2-39.9-19.7-60.2-28.5
		c-52.9-23-108.3-42.4-164-57.3c-3.7-1-7.3-1.9-11-2.9c-7-1.8-14.1-3.5-21.1-5.1c-7.1-1.6-14.2-3.2-21.4-4.6
		c-7.2-1.4-14.4-2.7-21.6-3.8c-7.2-1.1-14.5-2.1-21.7-2.9c-7.2-0.8-14.5-1.4-21.8-1.7c-7.2-0.4-14.5-0.5-21.8-0.5
		c-7.2,0.1-14.5,0.4-21.7,1c-6.7,0.6-13.4,1.8-19.8,3.6c-5.4,1.5-10.7,3.5-15.5,6.2c-4.1,2.3-7,5.3-9.5,8.7c0.3-0.5,0.6-1,0.9-1.6
		c-3.4,6.2-6.4,12-9.7,18.3c-10.4,20.2-20.8,43.9-27,64C10.4,133.6,3,160.2,0.8,183.9c0.9-2.2,2.3-4,4-5.6
		c4.3-4.1,10.5-6.5,16.1-8.3c5.8-1.9,11.8-3.2,17.9-4.1c6.5-0.9,13.1-1.4,19.7-1.8c6.6-0.4,13.2-0.5,19.8-0.5
		c6.6,0,13.2,0.3,19.9,0.7c6.6,0.4,13.2,1,19.8,1.7c6.6,0.7,13.2,1.6,19.8,2.6c6.6,1,13.1,2.1,19.6,3.3c6.5,1.2,12.9,2.5,19.4,3.8
		c3.4,0.7,6.7,1.4,10,2.2c51,11.2,101.1,26.4,149.8,45.3c18.5,7.2,36.9,15.1,54.9,23.5c17.3,8.1,34.4,16.8,51.3,26.2
		c16,8.9,31.7,18.3,47.2,28.3c14.5,9.4,28.7,19.3,42.6,29.8c0.4,0.3,0.7,0.6,1.1,0.8c1.6,1.2,3.2,2.4,4.7,3.6
		c1.6,1.2,3.1,2.4,4.7,3.7c1.5,1.2,3,2.4,4.6,3.7c1.5,1.2,3,2.5,4.6,3.7c1.5,1.2,3,2.5,4.5,3.7c1.5,1.3,3,2.5,4.5,3.8
		c1.5,1.3,3,2.5,4.4,3.8c1.5,1.3,2.9,2.6,4.4,3.9c11.1,9.8,21.6,20.1,31.6,30.8c9,9.7,17.4,19.9,25,30.6c6.8,9.5,12.9,19.5,18,29.9
		c4.5,9.3,8.2,18.9,10.6,28.9c4.3,18.1,3.5,36.7-1.1,54.6c-3.5,13.4-13.6,32.8-20.7,43.7c24.6-10.6,52-30.7,74.5-53.2
		C715.6,519.3,725.5,507.7,733.1,497.8z"/>
	<g>
		<path class="st0" d="M645.1,453c-5.1-10.5-11.2-20.4-18-29.9c-7.6-10.7-16-20.9-25-30.6c-9.9-10.8-20.5-21-31.6-30.8
			c-1.5-1.3-2.9-2.6-4.4-3.9c-1.5-1.3-3-2.6-4.4-3.8c-1.5-1.3-3-2.5-4.5-3.8s-3-2.5-4.5-3.7c-1.5-1.2-3-2.5-4.6-3.7
			c-1.5-1.2-3-2.4-4.6-3.7c-1.6-1.2-3.1-2.4-4.7-3.7c-1.6-1.2-3.1-2.4-4.7-3.6c-0.4-0.3-0.7-0.5-1.1-0.8
			c-13.9-10.5-28.1-20.4-42.6-29.8c-15.4-10-31.2-19.4-47.2-28.3c-16.8-9.3-33.9-18.1-51.2-26.2c-18.1-8.5-36.4-16.3-54.9-23.5
			c-48.6-18.9-98.8-34.1-149.8-45.3c-3.4-0.7-6.7-1.5-10.1-2.2c-6.4-1.3-12.9-2.6-19.4-3.8c-6.5-1.2-13-2.3-19.6-3.2
			c-6.6-1-13.2-1.9-19.8-2.6c-6.6-0.7-13.2-1.3-19.8-1.7c-6.6-0.4-13.2-0.6-19.9-0.7c-6.6,0-13.2,0.1-19.8,0.5
			c-6.6,0.4-13.2,0.9-19.7,1.8c-6,0.8-12,2.2-17.9,4.1c-5.6,1.8-11.7,4.2-16.1,8.3c-1.7,1.6-3.1,3.4-4,5.6c0,0.3-0.1,0.6-0.1,0.9
			c-0.1,0.8-0.1,1.7-0.2,2.5c0,0.1,0,0.2,0,0.3c-0.1,1-0.1,2.1-0.2,3.1v0.1c0,0.1,0,0.2,0,0.2c-0.1,0.9-0.1,1.9-0.1,2.8
			c0,0.2,0,0.4,0,0.5c0,0.8-0.1,1.7-0.1,2.5c0,0.5,0,1.1,0,1.6c0,0.5,0,1,0,1.4c0,1,0,2,0,3v0.4c0,4.8,2.7,38,157.4,80.3
			c17.1,4.7,35.4,9.1,54.4,13.1c12.7,2.7,25.8,5.2,39.2,7.5c3.3,0.6,6.7,1.1,10.1,1.7c54.1,8.8,112.9,14.2,172.1,14
			c18.5-0.1,37.1-0.7,55.5-1.9c11.3,7.5,22.4,15.3,33.4,23.5c2.9,2.2,5.8,4.4,8.7,6.7c2.9,2.2,5.7,4.5,8.5,6.8
			c2.8,2.3,5.6,4.5,8.4,6.9c2.8,2.3,5.5,4.7,8.2,7c1,0.9,2,1.8,3,2.7c10.8,9.6,21.3,19.6,31,30.2c8.8,9.5,17.1,19.5,24.6,30
			c6.7,9.3,12.7,19.1,17.7,29.3c4.4,9.1,8.1,18.6,10.5,28.4c4.3,17.7,3.6,36-1,53.6c-3.6,14-9.3,27.5-16.3,40.1c1.9-0.7,2.9-1,4-1.5
			l0-0.1c1.3-0.5,2.6-1,3.8-1.6c7.1-10.9,17.2-30.2,20.7-43.7c4.7-17.9,5.5-36.5,1.1-54.6C653.3,471.9,649.6,462.2,645.1,453z"/>
		<path class="st0" d="M609.7,240.4c0,0-26-20.9-47.9-35.5l14.4,34.6L609.7,240.4z"/>
		<path class="st0" d="M596.6,204.9c-5.2-3.8-10.4-7.7-15.7-11.4c-11.4-8.1-23.5-16.2-35.7-23.9l16.6,35.3h0L596.6,204.9z"/>
		<path class="st0" d="M744.8,447.6l-13.9,31.2c2.5-11.1,3.4-22.4,2.6-33.7c-0.3-3.7-0.8-7.4-1.4-11.1c-1.3-7.1-3.2-14-5.6-20.8
			l16.5,2.8c0,0-3.2-16.7-11.5-34.4l-5,31.6c-1.3-3.8-2.8-7.5-4.3-11.2c-3.4-8-7.4-15.8-11.8-23.4c0,0,0,0,0,0l-0.1-0.1l0,0l0,0
			l1.5-28.8l0.1-1.1l-0.1,1.1l0.1-1.1l0.1-1.5c-10.7-16.3-27.9-36.3-27.9-36.3l1.7,31.7l-0.2-0.2c0,0,0,0,0,0
			c-2.3-2.9-4.6-5.8-7-8.6c-6.8-8.1-13.9-16-21.2-23.6l26.6,0.6c0,0-13.7-16.4-34.2-35.6l-28.9,0.1l0,0l-0.7-0.5
			c0.4,0.4,0.8,0.7,1.2,1.1l0,0c-4.8-4.2-9.6-8.4-14.6-12.5c-9.8-8.1-19.8-15.9-30-23.5l-0.6-0.5l-0.5-0.3c-4.6-3.4-9.3-6.8-14-10.2
			c-11.7-8.3-23.6-16.2-35.7-23.9l35.8-0.2c0,0-23.4-16.3-51.7-32.9l15.8,33.1c-4.9-3.1-9.8-6.2-14.8-9.2
			c-12.2-7.4-24.5-14.5-36.9-21.3c-6.1-3.4-12.4-6.7-18.6-9.9c-12.2-6.3-24.5-12.4-36.9-18.2L399.2,116c0,0-38.9-16.3-55.1-21.8
			l19.2,28.5l0.3,0.1l-0.3-0.1l-0.7-0.3c0.2,0.1,0.5,0.2,0.7,0.3c-17.9-7.1-36.1-13.7-54.4-19.8l0.1,0c0.3,0.1,0.7,0.2,1,0.3
			l-0.5-0.2l34.5-8.9C320.6,85.4,289.5,76,289.5,76l-32.8,11l0,0l-0.1,0c-8-2.2-16.1-4.3-24.1-6.3c-3.6-0.9-7.3-1.8-10.9-2.6
			c-5.9-1.4-11.9-2.7-17.8-4l34-12.2c-22.4-5.9-47.6-10.2-47.6-10.2l13.3,22.4c-1-0.2-1.9-0.4-2.9-0.6c-7.1-1.5-14.1-2.8-21.3-4
			c-5.4-0.9-10.9-1.8-16.4-2.5l-0.2,0l27.5-15.2c-1.5-0.3-3.9-0.7-5.4-0.9c-7.3-1.2-13.9-2.2-20.9-3.1c-4.5-0.6-8.9-1.1-13.3-1.5
			l12.1,20.6l-0.3,0c-1.5-0.2-3-0.4-4.5-0.6c-7.2-0.9-14.4-1.6-21.6-2.2c-3.9-0.3-7.8-0.5-11.8-0.7l-1-0.1l27.1-17
			c0,0-18.5-2-36.9-1.7l9.8,18.8l-1.1,0c-2.6-0.1-5.1-0.2-7.7-0.2c-7.2-0.1-14.4,0-21.6,0.3c-2.7,0.1-5.3,0.3-8,0.5
			c2.8-0.2,4.4-0.3,4.4-0.3l-6.4-17.6c-28.8,2.2-43.2,12.7-43.7,13.2l0,0c-1.6,3.1-3.5,7.3-5.3,11.3c0.3-0.7,0.6-1.4,1-2.1
			c-2.3,4.9-4.5,9.9-6.5,14.9c-0.1,0.1-0.1,0.2-0.2,0.4c0,0.1-0.1,0.3-0.2,0.4v0c0,0,0,0,0,0c-0.9,2.3-1.9,4.6-2.8,6.9
			c1.4-1.3,2.6-2.3,4.4-3.4c4.8-2.9,10.1-5,15.4-6.7c6.4-2,13-3.4,19.6-4.3c7.1-0.9,14.3-1.5,21.5-1.8c7.2-0.3,14.4-0.4,21.6-0.3
			c7.2,0.1,14.4,0.5,21.6,1c7.2,0.5,14.4,1.3,21.5,2.2c7.2,0.9,14.3,2,21.4,3.2c7.1,1.2,14.2,2.5,21.2,4c7,1.5,14,3,21,4.6
			c3.6,0.8,7.3,1.7,10.9,2.6c55.3,13.7,110.3,32.5,162.9,55.3c20.2,8.8,40.2,18.3,59.8,28.4c18.8,9.7,37.3,20.1,55.4,31.1
			c17.2,10.4,34.1,21.5,50.5,33.1c15.4,10.9,30.5,22.3,45.1,34.4c13.5,11.1,26.6,22.8,39.1,35c11.4,11.2,22.3,22.8,32.5,35.1
			c9.2,11,17.8,22.5,25.5,34.6c6.9,10.7,13,21.9,18,33.5c4.4,10.3,7.9,21,9.9,32c3.6,19.8,1.4,39.8-5.1,58.7
			c-2.8,8-6.2,16-10.2,23.6l0.4-0.4c0.5-0.5,1-1,1.5-1.6c0.9-1,1.9-2,2.8-3c5.2-9.2,9.8-19,13.2-29c1.6-4.5,2.9-9.2,3.9-13.8l6.7,1
			C737.5,479.9,743.4,465.2,744.8,447.6z M710.2,378.4L710.2,378.4l-0.1-0.1c0,0,0,0,0,0L710.2,378.4z"/>
		<path class="st0" d="M119.9,128.4l-29.6,18.9c22.3,0.5,46,4.1,46,4.1L119.9,128.4z"/>
		<path class="st0" d="M162.6,134.7l-26.3,16.8c0,0,25.4,3.7,44.5,8L162.6,134.7z"/>
		<path class="st0" d="M172.4,29c-7.4-0.9-14.7-1.7-21.8-2.2c-4-0.3-8-0.5-12-0.7l12,20l26.8-16.4C175.8,29.4,174.1,29.2,172.4,29z"
			/>
		<path class="st0" d="M217.9,36.7c-0.7-0.2-1.5-0.3-2.2-0.5c-7.3-1.5-14.6-2.9-21.5-4c-5.6-1-11.2-1.8-16.7-2.5l12.8,21.9
			L217.9,36.7z"/>
		<path class="st0" d="M474.1,174.5L510,172l0,0l35.1-2.4c-5.1-3.2-10.3-6.5-15.5-9.6c-11.9-7.2-24.2-14.3-36.7-21.1l17,33.1
			c0,0-26.6-16-54.6-29.8L474.1,174.5z"/>
		<path class="st0" d="M753.1,400.6c-0.6-3.1-1.3-6.2-2.1-9.4l-8,24.7l11.8,2.3C754.7,412.4,754.1,406.3,753.1,400.6z"/>
		<path class="st0" d="M751.1,449.1c2.6-10.3,3.8-20.8,3.6-30.9l-10,29.4L751.1,449.1z"/>
		<path class="st0" d="M427.1,246.6c26,12.9,55.7,31.3,55.7,31.3l-15-30.9L427.1,246.6z"/>
		<path class="st0" d="M667.6,469.7c0,0,4.1,11.8,5.3,26.3l13.7-20.8L667.6,469.7z"/>
		<path class="st0" d="M669.8,532.5l19-30.1l-15.9-6.5C674.7,514.9,669.8,532.5,669.8,532.5z"/>
		<path class="st0" d="M770.8,379c-2-11.3-5.6-22.3-10-32.9c-5-11.9-11.2-23.4-18.2-34.3c-7.8-12.3-16.5-24-25.8-35.2
			c-3-3.6-6-7.1-9.1-10.6c0.2-0.1,0.4-0.2,0.6-0.3c2.1-1,4.3-2.1,6.4-3.1c0.5-0.2,0.9-0.5,1.4-0.7c1.8-0.9,3.7-1.9,5.5-2.8
			c0.5-0.3,1.1-0.6,1.6-0.8c1.8-0.9,3.5-1.9,5.2-2.8c2.2-1.2,4.5-2.5,6.7-3.8l-53.8-148.1l-1-2.7l-2.9-8.1c0,0-0.1,0-0.1,0.1
			c-0.1,0-0.1,0.1-0.2,0.2c-0.2,0.2-0.6,0.4-1,0.7c-0.3,0.2-0.6,0.4-0.9,0.6c-0.2,0.1-0.4,0.3-0.6,0.4c-0.8,0.5-1.7,1-2.7,1.7
			c-0.1,0.1-0.2,0.1-0.4,0.2c-14.9,9.1-57.6,32.3-121.4,42.9c-0.6-0.3-1.1-0.7-1.7-1c-18.3-11-36.9-21.3-55.9-31.1
			c-19.8-10.2-39.9-19.7-60.3-28.6c-53-23.1-108.4-42.4-164.3-57.3c-3.6-1-7.3-1.9-11-2.9c-7-1.8-14.1-3.5-21.2-5.1
			c-7.1-1.6-14.3-3.2-21.4-4.6c-7.2-1.4-14.4-2.7-21.6-3.8C185.4,4,178.2,3,170.9,2.2c-7.2-0.8-14.5-1.4-21.8-1.8
			c-7.3-0.4-14.5-0.5-21.8-0.5c-7.2,0.1-14.5,0.4-21.8,1c-6.7,0.6-13.4,1.8-19.9,3.6C80.3,6.1,75,8.1,70.1,10.8
			c-7.6,4.3-11.4,11-15.4,18.4c-0.3,0.5-0.6,1-0.9,1.6c2.5-3.4,5.5-6.4,9.5-8.7c4.9-2.8,10.2-4.7,15.5-6.2c6.5-1.8,13.1-3,19.8-3.6
			c7.2-0.7,14.5-0.9,21.7-1c7.3-0.1,14.5,0.1,21.8,0.5c7.3,0.4,14.5,1,21.8,1.8c7.3,0.8,14.5,1.7,21.7,2.9
			c7.2,1.1,14.4,2.4,21.6,3.8c7.2,1.4,14.3,2.9,21.4,4.6c7.1,1.6,14.1,3.3,21.1,5.1c3.7,0.9,7.3,1.9,11,2.9
			C316.6,47.7,372,67,424.9,90c20.4,8.9,40.5,18.4,60.2,28.5c18.9,9.7,37.6,20.1,55.8,31c17.3,10.4,34.3,21.4,50.8,33
			c15.5,10.9,30.7,22.3,45.3,34.4c13.6,11.2,26.8,22.9,39.3,35.2c11.5,11.3,22.5,23,32.8,35.4c9.3,11.2,17.9,22.9,25.7,35.1
			c6.9,10.9,13.1,22.3,18.1,34.2c4.4,10.5,8,21.5,10,32.8c3.7,20.3,1.5,41-5,60.5c-5.7,17-14.1,32.9-24.2,47.7c1.6-2,3.1-4,4.5-6.1
			c11.5-16,21.2-33.5,27.4-52.3C772.3,420,774.5,399.4,770.8,379z"/>
		<path class="st0" d="M708.4,453.9c-2-10.6-5.4-21-9.8-31c-4.9-11.3-11-22.1-17.8-32.5c-7.6-11.7-16.1-22.8-25.2-33.5
			c-10.1-11.8-20.9-23.1-32.2-34c-12.4-11.8-25.3-23.1-38.6-33.9c-14.4-11.6-29.3-22.7-44.6-33.2c-16.3-11.2-33-21.9-50-31.9
			c-17.9-10.6-36.2-20.6-54.8-30c-19.4-9.8-39.2-18.9-59.2-27.4c-52-22-106.4-40-161.2-53.2c-3.6-0.9-7.2-1.7-10.8-2.5
			c-6.9-1.6-13.8-3.1-20.8-4.4c-7-1.4-14-2.7-21-3.8c-7-1.2-14.1-2.2-21.2-3c-7.1-0.9-14.2-1.6-21.3-2.1c-7.1-0.5-14.2-0.8-21.4-0.9
			c-7.1-0.1-14.2,0-21.4,0.3c-7.1,0.4-14.2,0.9-21.3,1.8c-6.6,0.9-13.1,2.2-19.4,4.2c-5.3,1.7-10.5,3.7-15.3,6.5
			c-1.2,0.7-2.2,1.4-3.2,2.2c-0.8,2.7-2,6.4-2.8,9.1c0,0,0,0,0,0c-2.1,6.4-5.8,20.7-5.8,20.7c0,0,0,0,0,0
			c14.3-10.4,42.3-12.9,44.2-13c0.3,0,0.7-0.1,1-0.1l19.7-20.6c5.9-0.2,11.7-0.3,17.6-0.2c4.5,0.1,9.1,0.2,13.6,0.5l-22.6,18.8
			c0,0,19.2,0,37,1.8l-14.4-20.6c2.6,0.1,5.1,0.3,7.7,0.5c7.1,0.5,14.2,1.2,21.3,2.1c3.8,0.5,7.6,1,11.3,1.5l-25.9,16.6
			c23.9,2.4,42.7,6.2,42.7,6.2l-16.7-22.8c3.3,0.5,6.5,1,9.8,1.5c7,1.1,14,2.4,21,3.8c3.4,0.7,6.7,1.4,10,2.1l-24.1,15.4
			c17,2.8,46.3,10.1,46.3,10.1l-22.2-25.5c3.5,0.8,7.1,1.5,10.6,2.3c3.6,0.8,7.2,1.7,10.8,2.5c3.4,0.8,6.8,1.7,10.2,2.5
			c0.5,0.1,0.9,0.2,1.4,0.4c1.6,0.4,3.2,0.8,4.8,1.2c1.3,0.3,2.5,0.6,3.8,1c-0.7-0.2-1.5-0.4-2.3-0.6c1.8,0.5,3.7,1,5.5,1.4
			c-1-0.3-2.1-0.5-3.2-0.9c1.2,0.3,2.3,0.6,3.5,0.9c2.5,0.7,4.9,1.3,7.4,2l20.4,26.2c0,0,27.8,8.4,49.7,16.1L292,148.1
			c18.5,6.2,36.9,12.8,55,20l-37.7,6.3c0,0,28.9,10.1,54.7,21.1l36.3-4.6c9.4,4.3,18.7,8.8,27.9,13.5c8.4,4.2,16.7,8.6,25,13.1
			l-33.7,3.5c28.5,14.2,47.8,25.6,48.4,25.9l-14.6-29.4c10,5.4,20,11.1,29.8,16.9c7.1,4.2,14,8.4,20.9,12.8l-36.1-0.2
			c26.4,15.1,49.6,31,49.7,31.1l-34.7-0.2c0,0,26.8,16.3,48.8,32.5l-14-32.4l0,0L504,247.3c9.7,6.1,19.4,12.5,28.9,19
			c6.6,4.5,13.1,9.2,19.5,13.9l-34.8-2.1c21.6,14.2,48.2,35.9,48.2,35.9l-13.3-33.8c8.4,6.2,16.8,12.6,24.9,19.2
			c6.6,5.3,13,10.7,19.4,16.3l5.9,31.2c0,0,17.4,16.4,32.3,33.7l-1.6-29.8c-1-1.1-2.1-2.2-3.2-3.3c6.1,6.3,12.1,12.9,17.8,19.6
			c0,0,0,0,0,0c0.1,0.1,0.1,0.1,0.2,0.2c4.8,5.6,9.4,11.3,13.8,17.2l-26.9-3.8c15.9,18.3,25,33.1,25,33.1l23.3,3.7
			c2.8,5.1,5.3,10.3,7.7,15.6c2.7,6.2,5.1,12.6,6.9,19.1l-20.1-5.3c0,0,6.1,14.1,8.8,28.4l11.4-23.1c1.1,3.9,2.1,7.9,2.8,11.9
			c1,5.2,1.5,10.5,1.6,15.7l-15.8-4.5c3.2,16,2.2,27.3,2.2,27.3l13.6-22.8c0.3,9-0.7,17.9-2.6,26.8c-0.1,0.3-0.2,0.7-0.3,1l-10.7-5
			c-0.6,14.9-5.2,28-5.2,28l16-23.1c0,0,0,0.1-0.1,0.4c-0.6,2.8-1.4,5.5-2.2,8.2c-0.9,3-2.2,6.6-3.8,10.8c0.1-0.3,0.3-0.6,0.4-0.9
			c-0.4,1.1-0.9,2.3-1.4,3.4c0.4-0.8,0.7-1.7,1-2.5c-0.3,0.8-0.7,1.7-1,2.5c-3.1,7.4-6.9,14.9-10.8,21.6c0.9-0.7,2.3-1.8,3.2-2.5
			c7.5-11.6,14.1-24.7,18.6-37.6C709.8,492.5,711.9,473,708.4,453.9z M682.9,416.5c-0.1-0.2-0.2-0.3-0.3-0.5
			c0.1,0.2,0.2,0.4,0.3,0.6C682.9,416.6,682.9,416.5,682.9,416.5z M682.9,416.7c0,0.1,0.1,0.1,0.1,0.2c0,0.1,0.1,0.2,0.1,0.3
			C683.1,417,683,416.8,682.9,416.7z"/>
		<path class="st0" d="M12.6,661.8c0-2.9,2.4-5.2,8.4-5.2c3.4,0,7.2,1,10.6,3l2.3-5.6c-3.4-2.2-8.2-3.4-12.8-3.4
			c-10.6,0-15.5,5.3-15.5,11.5c0,14.3,22.9,8.9,22.9,17.2c0,2.9-2.5,5-8.5,5c-4.7,0-9.6-1.8-12.7-4.2l-2.5,5.6
			c3.2,2.8,9.2,4.6,15.2,4.6c10.6,0,15.6-5.3,15.6-11.4C35.4,664.7,12.6,670,12.6,661.8z"/>
		<path class="st0" d="M54.4,651.2l-17.3,38.5h7.4l3.8-8.9h19.3l3.9,8.9h7.5l-17.4-38.5H54.4z M50.7,675.2l7.2-16.8l7.3,16.8H50.7z"
			/>
		<path class="st0" d="M109.3,672.7c0,7.9-3.5,11.3-9.7,11.3c-6.2,0-9.8-3.4-9.8-11.3v-21.5h-7.2v21.7c0,11.2,6.3,17.3,16.9,17.3
			c10.5,0,16.8-6.1,16.8-17.3v-21.7h-7V672.7z"/>
		<path class="st0" d="M143.2,651.2h-16.8v38.5h16.8c12.5,0,21-7.7,21-19.3C164.2,658.9,155.7,651.2,143.2,651.2z M142.9,683.7h-9.4
			v-26.4h9.4c8.6,0,14.1,5.2,14.1,13.2S151.5,683.7,142.9,683.7z"/>
		<rect x="171.8" y="651.2" class="st0" width="7.2" height="38.5"/>
		<path class="st0" d="M216.5,651.2l-17.3,38.5h7.4l3.8-8.9h19.3l3.9,8.9h7.5l-17.4-38.5H216.5z M212.7,675.2l7.2-16.8l7.3,16.8
			H212.7z"/>
		<path class="st0" d="M278.1,664.9c0-8.5-6.3-13.7-16.4-13.7h-15.8v38.5h7.2v-11.2h8.7c0.5,0,1,0,1.5-0.1l7.9,11.3h7.7l-8.9-12.7
			C275.1,675,278.1,670.7,278.1,664.9z M261.3,672.6H253v-15.4h8.4c6.3,0,9.5,2.8,9.5,7.7S267.6,672.6,261.3,672.6z"/>
		<path class="st0" d="M297.9,651.2l-17.3,38.5h7.4l3.8-8.9H311l3.9,8.9h7.5L305,651.2H297.9z M294.2,675.2l7.2-16.8l7.3,16.8H294.2
			z"/>
		<path class="st0" d="M354.6,669.7c3-1.6,5-4.5,5-8.5c0-6.1-5-10-14.2-10h-18.1v38.5h19.2c9.9,0,15.1-3.9,15.1-10.5
			C361.5,674.3,358.7,671,354.6,669.7z M334.4,656.8h10.1c5,0,7.8,1.8,7.8,5.3c0,3.5-2.8,5.3-7.8,5.3h-10.1V656.8z M346,684.1h-11.6
			V673H346c5.4,0,8.3,1.7,8.3,5.6C354.3,682.4,351.4,684.1,346,684.1z"/>
		<rect x="369.2" y="651.2" class="st0" width="7.2" height="38.5"/>
		<path class="st0" d="M398.6,651.2l-17.3,38.5h7.4l3.8-8.9h19.3l3.9,8.9h7.5l-17.4-38.5H398.6z M394.9,675.2l7.2-16.8l7.3,16.8
			H394.9z"/>
		<path class="st0" d="M460.4,673.9c5.3-5,6.4-8.4,6.4-12.2c0-6.8-5.4-11.1-13.8-11.1c-6.3,0-11.7,2.4-14.6,6.4l5,3.9
			c2.1-2.8,5.3-4,9-4c4.7,0,7.2,2,7.2,5.6c0,2.1-0.7,4.4-4.4,8l-15.3,14.5v4.8h28.4v-6.1h-18.2L460.4,673.9z"/>
		<path class="st0" d="M488.3,650.6c-9.1,0-16.1,7.2-16.1,19.8c0,12.7,6.9,19.8,16.1,19.8c9.2,0,16.1-7.2,16.1-19.8
			C504.4,657.8,497.5,650.6,488.3,650.6z M488.3,684.1c-5.2,0-8.9-4.3-8.9-13.6s3.6-13.6,8.9-13.6c5.3,0,8.9,4.3,8.9,13.6
			S493.6,684.1,488.3,684.1z"/>
		<path class="st0" d="M529.1,673.9c5.3-5,6.4-8.4,6.4-12.2c0-6.8-5.4-11.1-13.8-11.1c-6.3,0-11.7,2.4-14.6,6.4l5,3.9
			c2.1-2.8,5.3-4,9-4c4.7,0,7.2,2,7.2,5.6c0,2.1-0.7,4.4-4.4,8l-15.3,14.5v4.8h28.4v-6.1h-18.2L529.1,673.9z"/>
		<path class="st0" d="M557,650.6c-9.1,0-16.1,7.2-16.1,19.8c0,12.7,6.9,19.8,16.1,19.8c9.2,0,16.1-7.2,16.1-19.8
			C573.1,657.8,566.1,650.6,557,650.6z M557,684.1c-5.2,0-8.9-4.3-8.9-13.6s3.6-13.6,8.9-13.6c5.3,0,8.9,4.3,8.9,13.6
			S562.2,684.1,557,684.1z"/>
		<path class="st0" d="M385,457.6c0-37.7-30.8-61.4-77.1-61.4c-37.4,0-66.4,15.1-82.5,38.6l35,22.5c10.1-13.9,25.2-20.8,43-20.8
			c21.9,0,33.2,9.5,33.2,25.8c0,10.1-3.3,20.8-21.7,38.3l-80.1,75.6v31.1h156.9v-39.1h-89.3l47.7-45.1
			C379.4,496.1,385,477.7,385,457.6z"/>
		<path class="st0" d="M500.1,396.2c-51,0-89,38.9-89,107.4c0,68.5,38,107.4,89,107.4c51.3,0,89-38.9,89-107.4
			C589,435,551.4,396.2,500.1,396.2z M500.1,570.3c-23.7,0-40.3-19.6-40.3-66.7c0-47.2,16.6-66.7,40.3-66.7
			c24,0,40.6,19.6,40.6,66.7C540.7,550.7,524.1,570.3,500.1,570.3z"/>
		<path class="st0" d="M733.4,445C733.4,445,733.4,445,733.4,445L733.4,445l11.4,2.6c0,0,1.6-16.3-1.8-31.7L733.4,445L733.4,445z"/>
	</g>
	<g>
		<path class="st1" d="M4.6,193.4c-0.2,0.2-0.3,0.4-0.5,0.6c-0.1,0.1-0.1,0.2-0.2,0.3c-0.1,0.1-0.2,0.2-0.2,0.3l0,0
			c-0.1,0.2-0.3,0.4-0.4,0.6c-0.1,0.2-0.3,0.4-0.4,0.6c-0.1,0.2-0.2,0.3-0.3,0.5c0,0,0,0.1,0.1,0.1c0.3,0.5,0.6,1,1,1.5
			C4,196.2,4.3,194.8,4.6,193.4C4.7,193.3,4.6,193.3,4.6,193.4z"/>
		<path class="st1" d="M6.7,191.4c-0.2,0.2-0.4,0.3-0.5,0.5c0,0,0,0,0,0C6,191.9,6,192,5.9,192.1c-0.1,0.1-0.2,0.2-0.3,0.2
			c0,0,0,0,0,0l0,0l0,0c-0.2,0.2-0.3,0.3-0.5,0.5c0,0-0.1,0.1-0.1,0.1c0,0,0.1-0.1,0.1-0.1c0,0,0,0,0,0c0,0-0.1,0.1-0.1,0.2
			c0,0,0,0-0.1,0.1c-0.4,1.6-0.8,3.2-1.2,4.8c0.4,0.5,0.7,1.1,1.1,1.6c0.6-2.7,1.3-5.4,2-8.2C6.8,191.3,6.7,191.3,6.7,191.4z"/>
		<path class="st1" d="M9.1,189.6c-0.4,0.3-0.8,0.6-1.2,0.8c0,0,0,0,0,0c-0.1,0.1-0.2,0.2-0.3,0.3c-0.8,3-1.6,6.1-2.3,9.2
			c0.4,0.5,0.7,1,1.1,1.5c0.9-3.9,1.9-7.9,3-11.9C9.2,189.5,9.2,189.5,9.1,189.6z"/>
		<path class="st1" d="M11.6,188.1L11.6,188.1C11.6,188.1,11.6,188.1,11.6,188.1L11.6,188.1C11.6,188.1,11.6,188.1,11.6,188.1
			C11.6,188.1,11.6,188.1,11.6,188.1C11.6,188.1,11.6,188.1,11.6,188.1c-0.4,0.2-0.8,0.5-1.2,0.7c-1.2,4.3-2.3,8.7-3.5,13.3
			c0.4,0.5,0.7,0.9,1.1,1.4c1.3-5.2,2.6-10.4,4.1-15.7C11.9,187.9,11.7,188,11.6,188.1z"/>
		<path class="st1" d="M14.3,186.8c-0.3,0.1-0.6,0.3-0.9,0.4c-1.6,5.8-3.2,11.6-4.6,17.3c0.4,0.5,0.8,0.9,1.2,1.4
			c1.6-6.4,3.3-12.9,5.2-19.5C14.9,186.6,14.6,186.7,14.3,186.8z"/>
		<path class="st1" d="M16.9,185.7c-2.1,7.2-4.1,14.3-5.9,21.3c0.4,0.4,0.8,0.9,1.2,1.3c1.9-7.7,4.1-15.4,6.4-23.3
			C18,185.3,17.5,185.5,16.9,185.7z"/>
		<path class="st1" d="M21.6,184c-0.3,0.1-0.6,0.2-0.9,0.3c-2.7,8.5-5,17-7.2,25.3c0.4,0.4,0.8,0.8,1.2,1.2c2.3-8.9,4.8-18,7.7-27.1
			C22.2,183.8,21.9,183.9,21.6,184z"/>
		<path class="st1" d="M24.9,183c-3.2,9.8-6,19.6-8.6,29.3c0.4,0.4,0.8,0.7,1.2,1.1c2.6-10.2,5.6-20.6,9-30.9
			C26,182.7,25.4,182.8,24.9,183z"/>
		<path class="st1" d="M29.4,181.8c-3.6,10.3-6.9,21.3-10,33.2c0.4,0.4,0.8,0.7,1.3,1.1c3-11.2,6.4-22.9,10.6-34.7
			C30.6,181.5,30,181.7,29.4,181.8z"/>
		<path class="st1" d="M34.5,180.8c-4.1,11.1-8,23.4-11.7,37.1c0.4,0.3,0.8,0.6,1.2,1c3.3-12.4,7.2-25.4,12-38.3
			C35.5,180.6,35,180.7,34.5,180.8z"/>
		<path class="st1" d="M39.5,180c-5.3,13.7-9.5,27.5-13.1,40.7c0.4,0.3,0.9,0.6,1.3,0.9c3.6-13.5,8-27.7,13.5-41.8
			C40.6,179.8,40,179.9,39.5,180z"/>
		<path class="st1" d="M44.9,179.3c-6,14.9-10.7,29.9-14.6,44.2c0.4,0.3,0.9,0.6,1.3,0.9c3.9-14.6,8.8-30,15-45.2
			C46,179.2,45.5,179.3,44.9,179.3z"/>
		<path class="st1" d="M51,178.7c-6.1,14.3-11.5,30.2-16.4,47.6c0.4,0.3,0.9,0.6,1.3,0.9c4.9-17.9,10.5-34.1,16.7-48.6
			C52.1,178.7,51.5,178.7,51,178.7z"/>
		<path class="st1" d="M58.5,178.2c-0.4,0-0.9,0.1-1.3,0.1c-6.7,15.1-12.7,32.1-18,50.9c0.4,0.3,0.9,0.5,1.3,0.8
			c5.3-19.2,11.4-36.5,18.3-51.8C58.7,178.2,58.6,178.2,58.5,178.2z"/>
		<path class="st1" d="M63.8,178c-7.5,16-14.1,34-19.8,54.1c0.4,0.3,0.9,0.5,1.3,0.8c5.8-20.5,12.5-38.8,20.2-55
			C65,178,64.4,178,63.8,178z"/>
		<path class="st1" d="M70.7,177.8c-8.2,16.7-15.4,35.8-21.5,57.2c0.4,0.2,0.9,0.5,1.3,0.7c6.1-21.8,13.4-41.1,21.8-57.9
			C71.8,177.8,71.2,177.8,70.7,177.8z"/>
		<path class="st1" d="M77.9,177.8c-9,17.4-16.7,37.4-23.2,60.2c0.5,0.2,0.9,0.5,1.4,0.7c6.5-23.1,14.4-43.3,23.5-60.8
			C79,177.8,78.5,177.8,77.9,177.8z"/>
		<path class="st1" d="M85.7,177.9c-11.1,20.4-19.3,42.4-25.2,62.9c0.4,0.2,0.9,0.4,1.4,0.6c7.3-25.5,16-46.4,25.4-63.5
			C86.8,177.9,86.3,177.9,85.7,177.9z"/>
		<path class="st1" d="M93.6,178.3c-12,21.1-20.7,44.1-26.9,65.5c0.5,0.2,0.9,0.4,1.4,0.6c6.2-21.5,15-44.8,27.2-66
			C94.7,178.3,94.2,178.3,93.6,178.3z"/>
		<path class="st1" d="M101.8,178.8c-10.7,17.9-20.5,40.2-28.5,67.8c0.5,0.2,0.9,0.4,1.4,0.6c8.1-28,18-50.4,28.8-68.3
			C102.9,178.8,102.4,178.8,101.8,178.8z"/>
		<path class="st1" d="M110.6,179.5c-12.3,19.8-22.5,43.3-30.4,70c0.5,0.2,0.9,0.4,1.4,0.6c8.5-29.1,19-52.1,30.5-70.4
			C111.6,179.6,111.1,179.6,110.6,179.5z"/>
		<path class="st1" d="M120.5,180.6c-13.9,22-24.4,47-33.2,71.7c0.5,0.2,0.9,0.4,1.4,0.5c8.8-24.9,19.4-50.1,33.5-72.1
			C121.6,180.7,121,180.6,120.5,180.6z"/>
		<path class="st1" d="M131.9,182c-14.4,22.1-25.9,47.5-36.1,73.5c0.5,0.2,0.9,0.3,1.4,0.5c10.2-26.1,21.8-51.6,36.3-73.7
			C133,182.2,132.5,182.1,131.9,182z"/>
		<path class="st1" d="M143,183.7c-15.1,22.7-27.3,48.7-38.5,74.9c0.5,0.2,0.9,0.3,1.4,0.5c11.2-26.3,23.4-52.4,38.7-75.1
			C144.1,183.9,143.5,183.8,143,183.7z"/>
		<path class="st1" d="M155.2,185.8c-0.4-0.1-0.8-0.1-1.3-0.2c-16.4,24.2-29.2,51.1-40.6,75.9c0.5,0.2,0.9,0.3,1.4,0.5
			c11.4-25,24.3-52,40.8-76.1C155.5,185.9,155.4,185.8,155.2,185.8z"/>
		<path class="st1" d="M164.9,187.6c-16.6,24.2-29.9,51.2-42.4,76.8c0.5,0.1,1,0.3,1.4,0.4c12.5-25.6,25.9-52.7,42.5-76.9
			C165.9,187.9,165.4,187.7,164.9,187.6z"/>
		<path class="st1" d="M175.6,189.8c-14.9,21.8-27.5,46-39.8,69.8c-1.3,2.5-2.6,5.1-3.9,7.6c0.5,0.1,1,0.3,1.5,0.4
			c1.3-2.4,2.5-4.9,3.8-7.3c12.4-24,25.1-48.3,40.1-70.1C176.6,190.1,176.1,190,175.6,189.8z"/>
		<path class="st1" d="M186.5,192.2c-13.5,19.7-25.1,41.1-36.6,62.3c-2.8,5.1-5.6,10.3-8.4,15.5c0.5,0.1,1,0.3,1.5,0.4
			c2.8-5.1,5.6-10.2,8.3-15.2c11.6-21.3,23.3-42.9,36.9-62.6C187.5,192.5,187,192.3,186.5,192.2z"/>
		<path class="st1" d="M199,195.1c-0.5-0.1-1-0.2-1.6-0.4c-12,17.6-22.7,36.5-33.2,55.2c-4.2,7.5-8.5,15.2-12.9,22.7
			c0.5,0.1,1,0.3,1.5,0.4c4.3-7.4,8.6-15,12.7-22.4C176.2,231.9,186.9,212.8,199,195.1z"/>
		<path class="st1" d="M210,197.8c-0.5-0.1-1-0.3-1.5-0.4c-10.6,15.7-20.1,32.2-29.5,48.6c-5.6,9.7-11.3,19.7-17.2,29.3
			c0.5,0.1,1,0.3,1.5,0.4c5.8-9.5,11.5-19.4,17-29C189.7,230.2,199.3,213.5,210,197.8z"/>
		<path class="st1" d="M221.1,200.6c-0.5-0.1-1-0.3-1.5-0.4c-9.2,13.8-17.6,28.1-25.9,42.4c-6.9,11.7-13.9,23.8-21.3,35.3
			c0.5,0.1,1,0.2,1.5,0.4c7.3-11.4,14.3-23.4,21.1-35C203.4,229,211.9,214.5,221.1,200.6z"/>
		<path class="st1" d="M233,203.8c-0.5-0.1-1-0.3-1.5-0.4c-6.3,9.9-12.2,20-18.1,30c-9.3,15.8-18.8,32-29.6,47.2
			c0.5,0.1,1,0.2,1.6,0.4c10.7-15.1,20.1-31.1,29.3-46.8C220.8,223.9,226.8,213.7,233,203.8z"/>
		<path class="st1" d="M244.7,207.1c-0.5-0.1-1-0.3-1.5-0.4c-5,8.1-9.8,16.3-14.5,24.4c-10.2,17.5-20.7,35.5-33.1,52.1
			c0.5,0.1,1.1,0.2,1.6,0.3c12.3-16.5,22.7-34.3,32.8-51.7C234.9,223.5,239.7,215.2,244.7,207.1z"/>
		<path class="st1" d="M256.6,210.6c-0.5-0.1-1-0.3-1.5-0.4c-3.8,6.4-7.5,12.9-11.2,19.3c-10.9,19-22.1,38.6-36,56.3
			c0.5,0.1,1.1,0.2,1.6,0.3c13.7-17.6,24.9-37,35.7-55.9C249,223.6,252.8,217,256.6,210.6z"/>
		<path class="st1" d="M268.8,214.4c-0.5-0.2-1-0.3-1.5-0.5c-2.8,4.8-5.5,9.6-8.1,14.4c-11.4,20.4-23.1,41.4-38.4,59.9
			c0.6,0.1,1.1,0.2,1.7,0.3c15-18.5,26.7-39.3,38-59.5C263.3,224.2,266,219.3,268.8,214.4z"/>
		<path class="st1" d="M281.3,218.4c-0.5-0.2-1-0.3-1.4-0.5c-1.8,3.3-3.6,6.5-5.3,9.8c-11.7,21.6-23.8,43.9-40.1,63.1
			c0.6,0.1,1.1,0.2,1.7,0.3c16.2-19.2,28.1-41.2,39.8-62.7C277.7,225.1,279.5,221.8,281.3,218.4z"/>
		<path class="st1" d="M294.2,222.8c-0.5-0.2-1-0.3-1.4-0.5c-0.9,1.7-1.8,3.4-2.7,5.2c-11.9,22.8-24.1,46.2-41.4,65.8
			c0.6,0.1,1.2,0.2,1.7,0.3c17.1-19.6,29.2-42.9,41-65.4C292.3,226.4,293.3,224.6,294.2,222.8z"/>
		<path class="st1" d="M307.5,227.5c-0.5-0.2-0.9-0.3-1.4-0.5c-0.1,0.2-0.2,0.3-0.2,0.5c-11.9,23.8-24.2,48.4-42.2,68.3
			c0.4,0.1,0.8,0.1,1.2,0.2c0.2,0,0.4,0.1,0.6,0.1c17.7-20,29.9-44.3,41.7-67.9C307.3,227.9,307.4,227.7,307.5,227.5z"/>
		<path class="st1" d="M440.4,288.2c-0.4-0.2-0.9-0.5-1.3-0.7c-1.3,3.5-2.7,7-4.2,10.4c-3.9-4.7-7.8-9.4-11.6-14.2
			c0.5-1.4,1-2.7,1.5-4.1c-0.4-0.2-0.9-0.5-1.3-0.7c-0.4,1.2-0.8,2.3-1.3,3.5c-1.9-2.4-3.8-4.8-5.7-7.1c-1.1-0.6-2.2-1.1-3.3-1.7
			c2.8,3.5,5.5,7,8.3,10.4c-2,5.1-4.2,10.2-6.6,15.1c-4.5-5.4-8.9-10.8-13.3-16.3c1.7-4.2,3.3-8.4,4.9-12.6
			c-0.4-0.2-0.9-0.4-1.3-0.7c-1.5,4-3,8-4.6,12c-3.7-4.7-7.5-9.4-11.2-14.1c0.6-1.6,1.2-3.2,1.8-4.7c-0.4-0.2-0.9-0.4-1.3-0.6
			c-0.5,1.3-1,2.7-1.5,4c-1.9-2.5-3.9-5-5.8-7.5c-1-0.5-1.9-0.9-2.9-1.3c2.7,3.5,5.4,7,8.1,10.5c-2.2,5.5-4.5,11-7,16.4
			c-3.3-4.1-6.6-8.2-9.8-12.4c2.4-5.1,4.6-10.2,6.8-15.3c-0.5-0.2-0.9-0.4-1.4-0.6c-2.1,4.9-4.2,9.8-6.5,14.6
			c-3.4-4.4-6.8-8.8-10.2-13.2c1.1-2.5,2.2-4.9,3.3-7.4c-0.5-0.2-0.9-0.4-1.4-0.6c-1,2.2-2,4.4-3,6.7c-3-3.9-5.9-7.8-8.8-11.7
			c-0.9-0.4-1.8-0.8-2.7-1.1c-2.5,5.6-5.1,11.2-7.8,16.8c-2.3-3-4.6-6-6.9-9c-0.3,0.4-0.7,0.7-1,1.1c2.4,3.2,4.8,6.3,7.2,9.4
			c-2.8,5.7-5.7,11.3-8.9,16.8c-3.1-4-6.2-8-9.3-12.1c5-9.3,9.4-18.8,13.8-28.3c-0.5-0.2-0.9-0.4-1.4-0.6
			c-4.2,9.2-8.6,18.5-13.4,27.6c-1.2-1.6-2.5-3.2-3.7-4.8c-0.4,0.4-0.7,0.7-1.1,1.1c1.3,1.7,2.7,3.5,4,5.2
			c-2.5,4.6-5.1,9.1-7.8,13.6c-2.8-3.6-5.6-7.2-8.4-10.8c6.9-11.7,12.9-24,18.7-36.2c-0.5-0.2-0.9-0.3-1.4-0.5
			c-8,16.7-16.4,33.6-26.7,48.8c-0.6-0.7-1.1-1.4-1.7-2.1c-0.4,0.3-0.7,0.7-1.1,1c0.6,0.8,1.3,1.6,1.9,2.4
			c-2.6,3.7-5.3,7.3-8.1,10.8c-1.8-2.3-3.7-4.6-5.5-7c-0.4,0.3-0.8,0.7-1.1,1c1.9,2.4,3.8,4.8,5.6,7.2c-1.2,1.4-2.3,2.8-3.6,4.1
			c0.6,0.1,1.2,0.2,1.8,0.3c0.9-1,1.8-2.1,2.7-3.2c1,1.3,2.1,2.6,3.1,4c0.7,0.1,1.4,0.2,2.1,0.3c-1.4-1.8-2.8-3.6-4.3-5.4
			c2.9-3.5,5.6-7,8.1-10.7c2.7,3.4,5.3,6.8,8,10.2c-1.8,2.3-3.6,4.5-5.5,6.7c0.6,0.1,1.2,0.2,1.8,0.2c1.6-1.9,3.1-3.8,4.6-5.8
			c1.9,2.3,3.7,4.7,5.6,7c0.7,0.1,1.4,0.2,2.1,0.2c-2.3-2.8-4.5-5.6-6.8-8.5c2.8-3.7,5.4-7.5,7.9-11.4c3,3.8,6,7.6,9,11.4
			c-2.1,3-4.3,6-6.7,8.9c0.6,0.1,1.2,0.1,1.7,0.2c2-2.6,4-5.2,5.9-7.8c2.5,3.1,5,6.2,7.5,9.2c0.7,0.1,1.4,0.1,2.1,0.2
			c-2.9-3.6-5.8-7.1-8.7-10.7c2.9-4.2,5.6-8.5,8.1-12.9c3.1,4,6.3,8,9.5,12c-2.5,4-5.2,7.9-8.1,11.7c0.6,0.1,1.2,0.1,1.7,0.2
			c2.6-3.5,5-7,7.3-10.6c3.2,4,6.4,7.9,9.6,11.9c-0.1,0.1-0.1,0.2-0.2,0.2c0.1,0,0.3,0,0.4,0c0.4,0,0.9,0.1,1.3,0.1
			c0.2,0,0.5,0,0.7,0.1c-0.1-0.2-0.3-0.3-0.4-0.5c3.4-4.9,6.6-10.1,9.5-15.3c3.3,4.1,6.6,8.1,9.9,12.2c-0.9,1.6-1.9,3.2-2.9,4.8
			c0.6,0,1.1,0.1,1.7,0.1c0.7-1.2,1.5-2.4,2.2-3.6c1.1,1.3,2.2,2.6,3.3,3.9c0.7,0,1.4,0.1,2,0.1c-1.5-1.8-3-3.6-4.5-5.4
			c2.9-5,5.6-10.3,8.1-15.6c3.6,4.5,7.3,9,10.9,13.4c-1.4,2.7-2.9,5.4-4.4,8.1c0.6,0,1.1,0.1,1.7,0.1c1.3-2.3,2.6-4.6,3.8-6.9
			c2,2.4,4,4.9,6,7.3c0.7,0,1.3,0,2,0.1c-2.4-2.9-4.9-5.8-7.3-8.8c2.6-5.1,5-10.4,7.2-15.7c4.4,5.4,8.8,10.8,13.2,16.2
			c-1.5,2.9-3,5.7-4.7,8.5c0.6,0,1.2,0,1.7,0c1.4-2.4,2.8-4.8,4-7.3c2,2.5,4.1,4.9,6.1,7.3c0.6,0,1.3,0,1.9,0
			c-2.4-2.9-4.9-5.8-7.3-8.8c2.4-4.9,4.6-9.9,6.6-15c3.8,4.7,7.7,9.4,11.6,14.1c-1.5,3.3-3.1,6.5-4.8,9.6c0.6,0,1.1,0,1.7,0
			c1.5-2.7,2.9-5.5,4.2-8.3c2.3,2.7,4.6,5.4,6.9,8.1c0.6,0,1.3,0,1.9,0c-2.7-3.2-5.4-6.4-8.1-9.6
			C437.6,295.5,439.1,291.9,440.4,288.2z M302.1,292.3c-2.7-3.4-5.4-6.8-8.1-10.3c2.7-3.9,5.2-7.9,7.6-11.9
			c2.8,3.6,5.6,7.2,8.4,10.8C307.5,284.8,304.9,288.6,302.1,292.3z M320.8,292.2c-3-3.8-6-7.6-9-11.4c2.8-4.4,5.4-8.9,7.8-13.5
			c3.1,4,6.2,8,9.3,12C326.4,283.7,323.7,288,320.8,292.2z M348.2,244.2c3.3,4.4,6.6,8.7,9.9,13c-2.5,5.5-5.1,11-7.9,16.4
			c-3.3-4.2-6.6-8.4-9.8-12.7C343,255.4,345.6,249.8,348.2,244.2z M340.2,291.2c-3.2-4-6.4-8-9.5-12c3.1-5.5,6.1-11.1,8.9-16.7
			c3.2,4.2,6.5,8.4,9.8,12.6C346.5,280.6,343.5,286,340.2,291.2z M350.9,304.4c-3.2-4-6.4-7.9-9.6-11.9c3.3-5.2,6.3-10.6,9.2-16.1
			c3.3,4.2,6.6,8.4,10,12.6C357.4,294.3,354.3,299.4,350.9,304.4z M361.2,287.6c-3.4-4.2-6.7-8.4-10-12.7c2.8-5.4,5.4-10.9,7.9-16.4
			c3.4,4.4,6.8,8.8,10.2,13.2C366.7,277.1,364,282.4,361.2,287.6z M372.1,301c-3.3-4-6.6-8.1-9.9-12.2c2.9-5.2,5.6-10.5,8.1-15.8
			c3.3,4.1,6.5,8.3,9.8,12.4C377.6,290.8,374.9,296,372.1,301z M392.8,298.7c-3.7-4.5-7.3-9-11-13.5c2.5-5.4,4.8-10.8,7-16.3
			c3.7,4.7,7.4,9.4,11.2,14.1C397.8,288.3,395.4,293.6,392.8,298.7z"/>
		<path class="st1" d="M453.5,295.7c0.4,0.4,0.7,0.9,1.1,1.3c-1.5,3.9-3.2,7.8-5.1,11.6c0.6,0,1.1,0,1.7-0.1
			c1.6-3.3,3.2-6.7,4.5-10.2c2.7,3.3,5.5,6.5,8.2,9.8c0.6,0,1.3,0,1.9-0.1c-2.9-3.4-5.7-6.7-8.6-10.1
			C456,297.1,454.7,296.4,453.5,295.7z"/>
		<path class="st1" d="M465.9,308c0.6,0,1.1-0.1,1.7-0.1c0.4-1,0.9-2,1.3-3c-0.4-0.3-0.8-0.5-1.3-0.8
			C467.1,305.5,466.5,306.8,465.9,308z"/>
	</g>
	<g>
		<path class="st1" d="M568.7,146.7c-0.5,0.1-1,0.2-1.4,0.3c-0.1,0-0.2,0-0.4,0.1c-0.3,0.8-0.6,1.5-1,2.3c0.4,0.3,0.8,0.5,1.3,0.8
			c0.3-0.7,0.5-1.4,0.8-2c1.1,1.6,2.3,3.2,3.4,4.8c1.1,0.7,2.3,1.4,3.4,2.2c-2-2.8-4-5.6-6-8.4C568.8,146.7,568.8,146.7,568.7,146.7
			z"/>
		<path class="st1" d="M728.9,243.6c-2.2-2.6-4.4-5.2-6.7-7.8c-1.7-6.9-3.5-13.9-5.3-20.8c2.8,3.4,5.7,6.9,8.6,10.3l-1.5-4.1
			c-2.7-3.2-5.3-6.3-7.9-9.5c-1.9-7.4-3.8-14.7-5.7-21.9c1.3,1.6,2.6,3.3,4,4.9l-1.6-4.4c-1.1-1.4-2.2-2.8-3.3-4.1
			c-0.4-1.6-0.8-3.1-1.2-4.7c-1.1-4.1-2.1-8.2-3.2-12.3l-2.8-7.6l-1.7-4.7l-0.8-2.2c0.1,0.6,0.3,1.1,0.4,1.7c-5.3-7-10.6-14-15.7-21
			c-2-8.2-3.9-16.3-5.7-24.5c3.4,4.8,6.9,9.6,10.4,14.4l-1.9-5.2c-3.1-4.4-6.2-8.7-9.3-13.1c-0.1-0.3-0.1-0.7-0.2-1
			c-0.1,0.1-0.2,0.1-0.3,0.2c-0.3,0.2-0.7,0.4-1,0.7c-0.1,0.1-0.2,0.1-0.2,0.2c0.1,0.2,0.3,0.4,0.4,0.6c1.8,8.2,3.7,16.4,5.7,24.6
			c-4.9-6.6-9.6-13.3-14.4-20.1c0,0-0.1,0-0.1,0.1c-0.4,0.2-0.8,0.5-1.2,0.7c-0.1,0-0.1,0.1-0.2,0.1c1.4,7.6,3,15.1,4.6,22.7
			c-4.4-6-8.8-12.1-13.1-18.2c-0.1,0.1-0.2,0.1-0.3,0.2c-0.3,0.2-0.7,0.3-1,0.5c-0.1,0.1-0.3,0.1-0.4,0.2c0.9,6.8,2,13.6,3.2,20.3
			c-4-5.4-7.9-10.9-11.8-16.4c-0.1,0.1-0.3,0.1-0.4,0.2c-0.3,0.1-0.6,0.3-0.9,0.4c-0.2,0.1-0.3,0.1-0.5,0.2
			c0.5,6.1,1.1,12.3,1.9,18.4c-3.6-4.9-7.1-9.8-10.6-14.8c-0.1,0.1-0.3,0.1-0.4,0.2c-0.3,0.1-0.7,0.3-1,0.4
			c-0.2,0.1-0.3,0.1-0.5,0.2c0.1,5.6,0.3,11.2,0.7,16.7c-3.2-4.5-6.5-8.9-9.6-13.4c-0.1,0-0.2,0.1-0.3,0.1c-0.4,0.1-0.8,0.3-1.1,0.4
			c-0.1,0-0.3,0.1-0.4,0.1c-0.3,5.1-0.5,10.2-0.4,15.3c-3-4.1-5.9-8.1-8.8-12.2c-0.1,0-0.1,0-0.2,0.1c-0.4,0.1-0.9,0.3-1.3,0.4
			c-0.1,0-0.2,0.1-0.3,0.1c-0.7,4.7-1.1,9.4-1.4,14.1c-2.7-3.7-5.4-7.5-8.1-11.3c0,0,0,0-0.1,0c-0.5,0.1-1,0.3-1.5,0.4
			c-0.1,0-0.1,0-0.2,0c-1,4.3-1.7,8.7-2.3,13.1c-2.5-3.4-5-6.9-7.5-10.4c0,0,0-0.1,0-0.1c0,0,0,0-0.1,0c-0.5,0.1-1,0.3-1.5,0.4
			c0,0,0,0-0.1,0c-1.2,4.1-2.2,8.2-3,12.3c-2.4-3.3-4.8-6.6-7.1-9.9c0,0,0,0,0-0.1c0,0,0,0,0,0c-0.5,0.1-1,0.2-1.6,0.4
			c0,0-0.1,0-0.1,0c-1.4,3.6-2.5,7.3-3.5,11c0.4,0.3,0.9,0.6,1.3,0.9c0.9-3.6,2-7.1,3.3-10.6c2.4,3.4,4.9,6.8,7.3,10.2
			c-0.4,2.2-0.7,4.5-1,6.7c0.5,0.3,0.9,0.6,1.4,1c0.3-2,0.5-4,0.8-5.9c3.2,4.4,6.4,8.8,9.7,13.2c0.3,0.2,0.6,0.4,0.9,0.6
			c1,0.7,2.1,1.5,3.1,2.2c-0.8-1.1-1.6-2.1-2.4-3.2c0.1-5,0.5-9.9,1-14.9c3.6,4.9,7.2,9.9,10.9,14.8c0.1,3.5,0.3,7,0.6,10.5
			c0.5,0.4,1,0.8,1.6,1.2c-0.2-3.2-0.4-6.4-0.6-9.6c4.7,6.3,9.6,12.6,14.4,18.9c0.1,0.4,0.1,0.8,0.2,1.3c0.6,0.4,1.1,0.9,1.7,1.3
			c0-0.1,0-0.1,0-0.2c0.1,0.1,0.2,0.3,0.3,0.4c1.6,1.3,3.2,2.5,4.8,3.8c-1.9-2.4-3.8-4.8-5.6-7.2c-0.9-6.2-1.7-12.5-2.3-18.8
			c5.1,6.8,10.3,13.5,15.5,20.2c0.8,4.7,1.7,9.3,2.6,14c0.6,0.5,1.2,1,1.8,1.5c-0.8-4.3-1.7-8.6-2.5-12.9
			c5.8,7.4,11.7,14.8,17.7,22.2c0.3,1.5,0.7,3.1,1,4.7c0.6,0.6,1.3,1.1,1.9,1.7c-0.3-1.3-0.5-2.5-0.8-3.8c3.4,4.1,6.8,8.3,10.2,12.4
			c3.2,3,6.5,6.1,9.6,9.2c0.1,0.1,0.2,0.2,0.3,0.3c-0.3-0.3-0.5-0.6-0.8-0.9c-1.5-6.7-3-13.5-4.6-20.1c5.7,7,11.6,13.9,17.4,20.8
			c1.3,5.5,2.5,11,3.7,16.4c0.3,0.3,0.6,0.7,1,1c0.2-0.1,0.5-0.2,0.7-0.3c-1.1-4.9-2.2-9.8-3.3-14.7c3.3,3.8,6.6,7.7,9.9,11.5
			c0.5-0.2,0.9-0.5,1.4-0.7c-4-4.6-8-9.3-12-13.9c-1.6-6.8-3.2-13.6-4.9-20.4c5.5,6.6,11,13.1,16.5,19.6c1.1,4.4,2.1,8.8,3.2,13.2
			c0.5-0.2,0.9-0.5,1.4-0.7c-0.8-3.3-1.6-6.7-2.4-10c2.2,2.6,4.4,5.1,6.7,7.7c0.5-0.3,0.9-0.5,1.3-0.7c-2.9-3.4-5.9-6.8-8.8-10.2
			c-1.7-6.9-3.4-13.8-5.1-20.6c5,6.1,10.2,12.1,15.3,18.1c0.9,3.5,1.7,6.9,2.6,10.4c0.5-0.3,0.9-0.5,1.3-0.8
			c-0.6-2.4-1.2-4.7-1.8-7.1c1.5,1.8,3,3.6,4.6,5.3C728.1,244.1,728.5,243.9,728.9,243.6z M598.5,168.6c-3.2-4.3-6.3-8.6-9.5-12.9
			c0.8-4.2,1.7-8.4,2.9-12.5c2.6,3.6,5.1,7.2,7.7,10.7C599.1,158.7,598.7,163.7,598.5,168.6z M611.8,167.8
			c-3.5-4.8-7.1-9.6-10.6-14.4c0.6-4.5,1.3-9,2.3-13.4c2.8,3.9,5.6,7.9,8.5,11.8C611.7,157.1,611.6,162.4,611.8,167.8z M713.9,209
			c-5.3-6.4-10.5-12.9-15.6-19.3c-1.9-7.6-3.9-15.2-5.9-22.9c5.2,6.8,10.5,13.5,15.8,20.2C710.1,194.2,712,201.6,713.9,209z
			 M683.6,188.8c-5.7-7.2-11.4-14.5-16.9-21.8c-1.6-7.3-3.1-14.7-4.5-22c5.2,7.1,10.5,14.2,15.9,21.2
			C679.8,173.7,681.7,181.3,683.6,188.8z M674,142.3c5.3,7.2,10.7,14.4,16.1,21.5c2,7.7,3.9,15.4,5.9,23.1
			c-5.6-7.1-11.2-14.2-16.6-21.4C677.5,157.7,675.7,150,674,142.3z M670.2,189.7c-5.7-7.2-11.2-14.5-16.8-21.8
			c-1.3-6.9-2.4-13.7-3.4-20.6c5,6.8,10.1,13.6,15.2,20.3C666.8,175,668.5,182.4,670.2,189.7z M656.2,189.6c-5.4-7-10.8-14-16.1-21
			c-0.9-6.4-1.7-12.7-2.2-19.1c4.7,6.4,9.4,12.7,14.2,19C653.4,175.6,654.8,182.6,656.2,189.6z M654.1,171.2
			c5.6,7.3,11.2,14.6,16.9,21.9c1,4.1,1.9,8.3,2.9,12.4c0.7,3,1.4,6,2.1,9c-6-7.3-11.9-14.7-17.7-22.1
			C656.8,185.3,655.4,178.3,654.1,171.2z M667.4,170.4c5.6,7.3,11.3,14.6,17.1,21.9c0.5,2.1,1,4.2,1.6,6.3
			c1.3,5.1,2.6,10.3,3.8,15.5c-5.9-7.2-11.7-14.4-17.5-21.7C670.7,185.1,669,177.8,667.4,170.4z M685.8,191.6
			c-1.9-7.5-3.7-15-5.5-22.6c5.5,7.2,11.1,14.2,16.7,21.3c0,0.2,0.1,0.3,0.1,0.5c1.8,7.1,3.7,14.3,5.5,21.5
			C696.9,205.5,691.3,198.6,685.8,191.6z M701.3,160.2c1.9,7.3,3.8,14.5,5.6,21.7c0.1,0.5,0.3,1,0.4,1.5
			c-5.3-6.7-10.6-13.5-15.8-20.3c-2-8-4-15.9-6-24C690.7,146.2,696,153.2,701.3,160.2z M668.5,115.6c4.9,6.9,9.8,13.7,14.8,20.4
			c1.9,8,3.9,16,5.9,24c-5.4-7.1-10.7-14.2-16-21.3C671.5,131,669.9,123.3,668.5,115.6z M658,120.2c4.6,6.4,9.2,12.8,13.8,19.1
			c1.7,7.7,3.5,15.5,5.3,23.2c-5.3-6.9-10.5-13.9-15.6-20.9C660.2,134.5,659,127.3,658,120.2z M647.4,124.6
			c4.2,5.9,8.4,11.7,12.7,17.5c1.4,7.3,2.8,14.7,4.4,22c-5-6.6-10-13.3-14.9-20C648.7,137.6,648,131.1,647.4,124.6z M648.2,144.7
			c0.9,6.9,2.1,13.7,3.3,20.5c-4.7-6.2-9.3-12.4-13.8-18.6c-0.5-5.9-0.8-11.8-0.9-17.8C640.5,134.2,644.3,139.5,648.2,144.7z
			 M625.9,132.9c3.4,4.8,6.8,9.5,10.3,14.3c0.5,6.3,1.2,12.7,2.1,19c-4.3-5.7-8.5-11.4-12.7-17.1
			C625.5,143.7,625.6,138.3,625.9,132.9z M614.8,136.6c3.1,4.3,6.2,8.6,9.3,12.9c0.1,5.8,0.4,11.7,0.9,17.5
			c-3.9-5.2-7.8-10.5-11.6-15.7C613.7,146.4,614.1,141.5,614.8,136.6z M627.4,188.5c-4.7-6.2-9.4-12.3-14.1-18.6
			c-0.2-5.4-0.2-10.8,0-16.2c3.9,5.4,7.9,10.8,11.9,16.1C625.8,176,626.6,182.3,627.4,188.5z M626.7,169.3
			c-0.5-5.9-0.9-11.8-1.1-17.6c4.3,5.9,8.7,11.7,13.1,17.6c0.9,6.7,2,13.3,3.2,19.9C636.8,182.5,631.7,175.9,626.7,169.3z
			 M643.9,191.7c-1.2-6.6-2.3-13.3-3.3-20c5.4,7.1,10.9,14.3,16.4,21.3c1.3,6.2,2.7,12.4,4,18.5c0.2,0.8,0.3,1.5,0.5,2.3
			C655.5,206.5,649.6,199.1,643.9,191.7z M681.5,238.1c-6.1-7.2-12-14.4-18-21.7c-0.4-1.7-0.7-3.5-1.1-5.2
			c-1.1-5.2-2.3-10.4-3.4-15.6c5.9,7.4,11.8,14.8,17.8,22.2C678.4,224.5,680,231.3,681.5,238.1z M695.6,238
			c-5.9-6.9-11.7-13.9-17.5-20.9c-0.9-4-1.9-8-2.8-12c-0.7-3.1-1.5-6.2-2.2-9.3c5.8,7.3,11.6,14.5,17.5,21.7
			C692.4,224.3,694,231.1,695.6,238z M708.6,236.5c-5.6-6.5-11.1-13.1-16.6-19.7c-1.5-6.2-3.1-12.4-4.6-18.6c-0.3-1-0.5-2.1-0.8-3.1
			c5.5,6.9,11.1,13.8,16.8,20.7C705.2,222.7,706.9,229.6,708.6,236.5z M704.8,215.1c-1.9-7.3-3.7-14.6-5.6-21.9
			c5.1,6.4,10.3,12.8,15.6,19.2c1.8,6.9,3.6,13.9,5.3,20.9C714.9,227.3,709.8,221.2,704.8,215.1z"/>
	</g>
	<radialGradient id="SVGID_1_" cx="-11.5104" cy="192.7213" r="259.0717" gradientUnits="userSpaceOnUse">
		<stop  offset="0.2962" style="stop-color:#298284"/>
		<stop  offset="1" style="stop-color:#298284;stop-opacity:0"/>
	</radialGradient>
	<path class="st2" d="M480.1,312.5c-15.2-9.8-30.6-19-46.3-27.7c-16.5-9.1-33.3-17.7-50.3-25.7c-17.7-8.3-35.7-16-53.8-23.1
		c-47.6-18.5-96.6-33.4-146.4-44.4c-3.3-0.7-6.5-1.4-9.8-2.1c-6.3-1.3-12.6-2.6-18.9-3.7c-6.4-1.2-12.8-2.2-19.2-3.2
		c-6.4-1-12.9-1.8-19.3-2.5c-3.3-0.4-6.6-0.7-9.9-1c-3.2-0.3-6.3-0.5-9.5-0.7c-6.5-0.4-13-0.6-19.5-0.7c-3.2,0-6.5,0-9.7,0.1
		c-3.2,0.1-6.5,0.2-9.7,0.4c-6.5,0.4-12.9,0.9-19.3,1.8c-5.9,0.8-11.8,2.1-17.5,4c-0.3,0.1-0.7,0.2-1,0.3c-0.2,0.1-0.3,0.1-0.5,0.2
		c-2,0.7-3.9,1.4-5.9,2.3c-0.7,0.3-1.4,0.6-2.1,1c-0.2,0.1-0.4,0.2-0.6,0.3c-0.8,0.5-1.7,0.9-2.5,1.4c-0.4,0.3-0.8,0.6-1.2,0.8
		c0,0,0,0,0,0c-0.2,0.2-0.5,0.3-0.7,0.5c-0.2,0.1-0.3,0.3-0.5,0.4c-0.2,0.2-0.4,0.3-0.5,0.5c-0.2,0.2-0.4,0.3-0.5,0.5
		c-0.2,0.2-0.3,0.3-0.5,0.5c-0.2,0.2-0.3,0.3-0.5,0.5c-0.2,0.2-0.3,0.4-0.5,0.6c-0.1,0.2-0.3,0.4-0.4,0.5c-0.1,0.2-0.3,0.4-0.4,0.6
		c-0.1,0.2-0.3,0.4-0.4,0.6c-0.1,0.2-0.3,0.4-0.4,0.6c-0.1,0.2-0.2,0.4-0.3,0.7c-0.1,0.2-0.2,0.4-0.3,0.6c-0.2,0.3-0.3,0.7-0.4,1.1
		c0,0.1-0.1,0.2-0.1,0.3C0.3,200.2,0,201.6,0,203c0,3-2.6,37,157.4,80.7c91.5,25,213.1,42.2,331.3,34.4
		C485.8,316.2,483,314.4,480.1,312.5z"/>
	<g>
		<path class="st0" d="M14.3,734.4H0.9v-4.9h32.4v4.9H19.8v34.3h-5.5V734.4z"/>
		<path class="st0" d="M73.1,729.5v39.2h-5.6v-17.5H45v17.5h-5.6v-39.2H45v16.9h22.5v-16.9H73.1z"/>
		<path class="st0" d="M84.9,729.5h5.6v39.2h-5.6V729.5z"/>
		<path class="st0" d="M135.9,729.5v39.2h-4.6l-23.5-29.2v29.2h-5.6v-39.2h4.6l23.5,29.2v-29.2H135.9z"/>
		<path class="st0" d="M160.5,751.3l-7.2,7.3v10.1h-5.6v-39.2h5.6v21.9l21.3-21.9h6.4l-16.7,17.6l17.8,21.6h-6.6L160.5,751.3z"/>
	</g>
</g>
</svg>
