<?xml version="1.0" encoding="UTF-8"?> <!-- Generator: Adobe Illustrator 25.0.1, SVG Export Plug-In . SVG Version: 6.00 Build 0) --> <svg xmlns="http://www.w3.org/2000/svg" xmlns:xlink="http://www.w3.org/1999/xlink" version="1.1" id="Livello_1" x="0px" y="0px" viewBox="0 0 353 163" style="enable-background:new 0 0 353 163;" xml:space="preserve"> <style type="text/css"> .st0{fill:#BE1C33;} .st1{fill:#009640;} .st2{fill:#89150D;} .st3{fill:#E30613;} .st4{fill:#CF3431;} .st5{fill:#4EB051;} .st6{fill:#255627;} .st7{fill:#586B7A;} .st8{fill:#004B84;} .st9{fill:#FFFFFF;} .st10{fill:#E2A615;} .st11{fill:#4F854E;} .st12{fill:#F5F5F5;} .st13{fill:#B23033;} </style> <path class="st0" d="M72.5,69.4l-10.2,9.3h21.5c-0.7-0.8-1.2-1.7-1.8-2.5c-2.3-3.8-3.5-8.2-3.4-12.6c0-0.1,0-0.2,0-0.3 C76.7,65.4,74.7,67.5,72.5,69.4z"></path> <path class="st1" d="M43.3,49.7v6.6H29.4v26L55,58.7c1.8-1.5,3.3-3.4,4.5-5.4c0.7-1.4,1.1-2.9,1.1-4.4c0.1-1.6-0.6-3.1-1.8-4.1 c-1.5-1.1-3.3-1.6-5.2-1.5c-2.2,0-4.3,0.6-6.1,1.7C45.7,46.1,44.2,47.7,43.3,49.7z"></path> <path class="st2" d="M110.4,53.2c-3.3-1.9-7.4-1.9-10.7,0c-1.6,1-2.9,2.4-3.8,4.1c-1,1.9-1.5,4-1.4,6.2c-0.1,2.2,0.4,4.3,1.4,6.2 c0.9,1.7,2.2,3.1,3.8,4c3.3,1.9,7.4,1.9,10.7,0c1.6-1,2.9-2.4,3.8-4.1c1-1.9,1.5-4.1,1.4-6.2c0-2.1-0.4-4.3-1.4-6.2 C113.3,55.6,112,54.2,110.4,53.2z"></path> <path class="st3" d="M70.9,27c4.1,1.6,7.6,4.3,10.2,7.9c2.5,3.4,3.7,7.5,3.7,11.7c0,0.2,0,0.4,0,0.6c1.9-2.1,4.2-3.8,6.7-5.1 c8.6-4.2,18.6-4.2,27.2,0c3.9,2,7.2,5,9.5,8.8c0.9,1.4,1.6,3,2.1,4.5V25H63.9C66.3,25.4,68.7,26.1,70.9,27z"></path> <path class="st4" d="M128.1,76.1c-2.3,3.7-5.6,6.8-9.5,8.8c-8.6,4.2-18.6,4.2-27.2,0c-1.8-1-3.5-2.1-5.1-3.5v15.6h43.8V71.6 C129.7,73.2,129,74.7,128.1,76.1z"></path> <path class="st5" d="M31.2,43.9L25,40.8c2.7-5.1,6.9-9.3,11.9-12.1c3.3-1.9,7-3.1,10.7-3.8H0.2v19H31.2z"></path> <polygon class="st6" points="29.2,91.2 13.5,91.2 13.5,56.3 0.2,56.3 0.2,96.9 29.2,96.9 "></polygon> <path class="st7" d="M4.2,116H0.2v-2.4h11.1v2.4H7.2v10.4h-3V116z"></path> <path class="st7" d="M32.2,113.6v12.8h-3v-5.2h-5.8v5.2h-3v-12.8h3v5h5.8v-5H32.2z"></path> <path class="st7" d="M43,113.6h3v12.8h-3V113.6z"></path> <path class="st7" d="M68.4,113.6v12.8h-2.4l-6.4-7.8v7.8h-2.9v-12.8h2.5l6.4,7.8v-7.8H68.4z"></path> <path class="st7" d="M83.7,121.4l-1.7,1.8v3.2h-3v-12.8h3v6l5.7-6H91l-5.3,5.7l5.6,7.1h-3.5L83.7,121.4z"></path> <path class="st7" d="M109.6,124v2.4H100v-1.9l4.9-4.7c0.4-0.4,0.8-0.8,1.1-1.3c0.2-0.3,0.3-0.7,0.3-1.1c0-0.5-0.2-0.9-0.5-1.2 c-0.5-0.3-1-0.4-1.5-0.4c-0.5,0-1,0.1-1.5,0.3c-0.5,0.2-0.8,0.5-1.1,1l-2.2-1.4c0.5-0.8,1.2-1.4,2.1-1.7c0.9-0.4,2-0.6,3-0.6 c0.9,0,1.7,0.1,2.5,0.5c0.7,0.3,1.2,0.7,1.7,1.3c0.4,0.6,0.6,1.3,0.6,2c0,0.7-0.1,1.3-0.4,2c-0.4,0.8-1,1.5-1.7,2.1l-2.9,2.8 L109.6,124z"></path> <path class="st7" d="M121.3,125.9c-0.9-0.6-1.5-1.3-1.9-2.3c-0.9-2.3-0.9-4.8,0-7.1c0.4-0.9,1.1-1.7,1.9-2.3c1.7-1,3.9-1,5.7,0 c0.9,0.6,1.5,1.3,1.9,2.3c0.9,2.3,0.9,4.8,0,7.1c-1.2,2.7-4.4,3.8-7.1,2.6C121.7,126.1,121.5,126,121.3,125.9z M126,123.2 c0.9-2,0.9-4.2,0-6.2c-0.4-0.6-1.1-1-1.8-1c-0.7,0-1.4,0.4-1.8,1c-0.9,2-0.9,4.2,0,6.2c0.4,0.6,1.1,1,1.8,1 C124.9,124.2,125.6,123.8,126,123.2L126,123.2z"></path> <path class="st7" d="M1.6,135.5h0.9v8.9H1.6V135.5z"></path> <path class="st7" d="M15.7,136.3h-3.2v-0.8h7.2v0.8h-3.1v8.1h-1V136.3z"></path> <path class="st7" d="M34.6,142.1h-5l-1.1,2.4h-1l4.1-8.9h0.9l4.1,8.9h-1L34.6,142.1z M34.3,141.3l-2.1-4.8l-2.2,4.8H34.3z"></path> <path class="st7" d="M46.7,135.5h0.9v8.1h5v0.8h-6V135.5z"></path> <path class="st7" d="M64.8,141.4v3.1h-0.9v-3.1l-3.6-5.8h1l3.1,5l3.1-5h0.9L64.8,141.4z"></path> <path class="st7" d="M84,143.6v0.8h-6.3v-0.7l3.7-3.6c0.4-0.3,0.7-0.7,1-1.2c0.2-0.3,0.2-0.7,0.2-1c0-0.5-0.2-0.9-0.5-1.2 c-0.5-0.3-1-0.5-1.6-0.4c-0.9-0.1-1.8,0.3-2.5,1l-0.7-0.6c0.4-0.4,0.8-0.7,1.3-0.9c0.6-0.2,1.2-0.3,1.8-0.3c0.8,0,1.5,0.2,2.2,0.6 c0.5,0.4,0.8,1.1,0.8,1.8c0,0.5-0.1,0.9-0.3,1.3c-0.3,0.6-0.7,1.1-1.2,1.5l-3,3L84,143.6z"></path> <path class="st7" d="M95.3,144c-0.6-0.4-1-0.9-1.3-1.6c-0.6-1.6-0.6-3.3,0-4.8c0.3-0.6,0.7-1.2,1.3-1.6c1.1-0.7,2.6-0.7,3.7,0 c0.6,0.4,1,0.9,1.3,1.6c0.6,1.6,0.6,3.3,0,4.8c-0.3,0.6-0.7,1.2-1.3,1.6C97.9,144.7,96.5,144.7,95.3,144z M98.5,143.3 c0.4-0.3,0.7-0.8,0.9-1.3c0.4-1.3,0.4-2.7,0-4c-0.2-0.5-0.5-0.9-0.9-1.3c-0.8-0.6-1.9-0.6-2.7,0c-0.4,0.3-0.7,0.8-0.9,1.3 c-0.4,1.3-0.4,2.7,0,4c0.2,0.5,0.5,0.9,0.9,1.3C96.6,143.8,97.7,143.8,98.5,143.3z"></path> <path class="st7" d="M116.6,143.6v0.8h-6.3v-0.7l3.7-3.6c0.4-0.3,0.7-0.7,1-1.2c0.2-0.3,0.2-0.7,0.2-1c0-0.5-0.2-0.9-0.5-1.2 c-0.5-0.3-1-0.5-1.6-0.4c-0.9-0.1-1.8,0.3-2.4,1l-0.7-0.6c0.4-0.4,0.8-0.7,1.3-0.9c0.6-0.2,1.2-0.3,1.8-0.3c0.8,0,1.5,0.2,2.2,0.6 c0.5,0.4,0.9,1.1,0.8,1.8c0,0.5-0.1,0.9-0.3,1.3c-0.3,0.6-0.7,1.1-1.2,1.5l-3,3L116.6,143.6z"></path> <path class="st7" d="M128.9,135.5v8.9h-0.9v-8.1h-2.1v-0.8L128.9,135.5z"></path> <rect x="184.8" y="24.8" class="st8" width="115.9" height="115.9"></rect> <path class="st9" d="M251.6,92.3L251.6,92.3c-1.5,1.7-4.4,0.6-6.7-1.1c-2.7-1.9-6.3-1.6-8.6,0.8v-3.9h7.9c4-0.3,6.4-3.1,6.4-6.3 s-2.8-6.4-7.4-6.4s-7.3,3-7.3,6.4h0.5c0-2.4,3.9-3.2,7-3.2c3.3,0,6.8,0.9,6.8,3.2c0,2.2-2.9,3.1-5.9,3.2h-4.8l-4,3.1l0,0v4.6h0.9 c1.2-1.9,4.1-0.7,6.4,1c2.9,2,6.8,1.6,9.2-1l0,0L251.6,92.3z"></path> <path class="st9" d="M256,85c0-5.2,4.2-9.4,9.4-9.4c5.2,0,9.4,4.2,9.4,9.4c0,5.2-4.2,9.4-9.4,9.4c0,0,0,0,0,0 c-5.1,0.1-9.3-4-9.4-9.1C256,85.2,256,85.1,256,85z M271.9,85c-0.1-3.6-3-6.5-6.6-6.4s-6.5,3-6.4,6.6c0.1,3.6,3,6.4,6.5,6.4 c3.5,0.1,6.4-2.7,6.5-6.2C271.8,85.3,271.8,85.1,271.9,85L271.9,85z"></path> <path class="st9" d="M222.4,85.1h6.9v0.2l-2,1.4v6c-3.2,1.8-8.6,1.7-11.9,0.1c-2.6-1.4-4.3-4.2-4.5-7.2c-0.2-2.2,0.3-5.6,2.7-7.7 c3.8-3.2,9.8-2.7,13.6-1.2l-0.4,5h-0.7l-0.7-3.7c-2.7-1.1-5.8-0.9-8.3,0.6c-2,1.3-3.2,3.6-2.9,6c0,2.3,0.8,5,3.3,6.4 c1.2,0.7,2.5,1.1,3.9,1.2h3.6l-0.6-0.9v-4.7l-2.1-1.4L222.4,85.1z"></path> <path class="st10" d="M211.6,106.6v-6.9h1.6v6.9H211.6z"></path> <path class="st10" d="M220.9,99.7h5.6v1.4h-2v5.5h-1.6v-5.5h-2L220.9,99.7z"></path> <path class="st10" d="M235.1,99.7h1.7l2.5,6.9h-1.7l-0.5-1.4h-2.5l-0.5,1.4h-1.6L235.1,99.7z M235.1,103.9h1.6l-0.8-2.4h-0.1 L235.1,103.9z"></path> <path class="st10" d="M248.4,105.2h3.1v1.4h-4.7v-6.9h1.6V105.2z"></path> <path class="st10" d="M259.1,106.6v-6.9h1.6v6.9H259.1z"></path> <path class="st10" d="M270.7,99.7h1.7l2.5,6.9h-1.7l-0.5-1.4h-2.5l-0.5,1.4h-1.6L270.7,99.7z M270.7,103.9h1.6l-0.8-2.4h0 L270.7,103.9z"></path> <path class="st10" d="M214.8,113.2c0-0.5-0.4-0.8-0.8-0.8c0,0,0,0-0.1,0c-0.6,0-1.1,0.4-1.3,1l-1.2-0.5c0.4-1.1,1.5-1.8,2.7-1.8 c1.2-0.1,2.2,0.7,2.4,1.9c0,0,0,0.1,0,0.1c0,1-0.7,1.8-1.6,2.5l-1.2,1.1h3.2v1.4h-5.3v-1.1l2.1-2.1 C214.4,114,214.8,113.7,214.8,113.2z"></path> <path class="st10" d="M223.3,114.4c0-0.6,0.4-1,1-1s1,0.4,1,1s-0.4,1-1,1S223.3,115,223.3,114.4z"></path> <path class="st10" d="M233.2,118.2c-1.8,0-3-1.5-3-3.6s1.2-3.6,3-3.6s3,1.4,3,3.6S235,118.2,233.2,118.2z M233.2,116.8 c0.8,0,1.3-0.8,1.3-2.2s-0.5-2.2-1.3-2.2s-1.3,0.8-1.3,2.2S232.5,116.8,233.2,116.8z"></path> <path class="st10" d="M242.4,114c0-0.6,0.4-1,1-1s1,0.4,1,1s-0.4,1-1,1S242.4,114.6,242.4,114z"></path> <path class="st10" d="M253,113.2c0-0.5-0.4-0.8-0.8-0.8c0,0,0,0-0.1,0c-0.6,0-1.1,0.4-1.3,1l-1.1-0.5c0.4-1.1,1.5-1.8,2.6-1.8 c1.2-0.1,2.3,0.7,2.4,1.9c0,0,0,0.1,0,0.1c0,1-0.7,1.8-1.6,2.5l-1.2,1.1h3.1v1.4h-5.3v-1.1l2.1-2.1C252.7,114,253,113.7,253,113.2z"></path> <path class="st10" d="M261.5,114c0-0.6,0.4-1,1-1s1,0.4,1,1s-0.4,1-1,1S261.5,114.6,261.5,114z"></path> <path class="st10" d="M272.5,116.6h1.5v1.4h-4.9v-1.4h1.7v-3.9l-1.4,0.5l-0.4-1.2l2.1-0.9h1.3V116.6z"></path> <path class="st10" d="M242.8,140.7c-38.9,0-70.4-31.5-70.4-70.4S203.9,0,242.8-0.1s70.4,31.5,70.4,70.4c0,0,0,0,0,0 C313.1,109.2,281.6,140.6,242.8,140.7z M242.8,1.6c-38,0-68.7,30.8-68.8,68.7s30.8,68.7,68.7,68.8s68.7-30.8,68.8-68.7c0,0,0,0,0,0 C311.5,32.4,280.7,1.6,242.8,1.6z"></path> <rect x="184.8" y="140.7" class="st11" width="38.6" height="3.6"></rect> <rect x="223.5" y="140.7" class="st12" width="38.6" height="3.6"></rect> <rect x="262.1" y="140.7" class="st13" width="38.6" height="3.6"></rect> </svg> 